<svg xmlns="http://www.w3.org/2000/svg" width="44.733" height="10.069" viewBox="0 0 44.733 10.069"><g transform="translate(13.681 -96.392)"><g transform="translate(-13.681 96.392)"><path d="M13.573,96.392H1.045A1.01,1.01,0,0,0,0,97.36v8.134a1.01,1.01,0,0,0,1.045.968H13.573a1.01,1.01,0,0,0,1.045-.968V97.36A1.01,1.01,0,0,0,13.573,96.392ZM3.656,105.1a.579.579,0,0,1-.6.555H1.543a.578.578,0,0,1-.6-.555V97.748a.578.578,0,0,1,.6-.555H3.057a.578.578,0,0,1,.6.555V105.1Zm3.337,0a.579.579,0,0,1-.6.555H4.88a.578.578,0,0,1-.6-.555V97.748a.578.578,0,0,1,.6-.555H6.394a.578.578,0,0,1,.6.555V105.1Z" transform="translate(14.287 -96.392)"/><path d="M533.1,174.893h0Z" transform="translate(-525.705 -164.824)"/></g></g></svg>