<svg xmlns="http://www.w3.org/2000/svg" width="12.964" height="12.964" viewBox="0 0 12.964 12.964"><g transform="translate(-0.004 0)"><g transform="translate(0.004 0)"><g transform="translate(0 0)"><path d="M12.787.022a.3.3,0,0,0-.321.064L.091,12.461a.295.295,0,0,0,.208.5H12.674a.294.294,0,0,0,.295-.295V.294A.3.3,0,0,0,12.787.022Z" transform="translate(-0.004 0)"/><path d="M150.513,46.8a1.18,1.18,0,0,0,1.179-1.179v-.589a.294.294,0,0,0-.295-.295h-.589a.295.295,0,1,0,0,.589h.295v.295a.589.589,0,1,1-1.179,0V43.851a.589.589,0,1,1,1.179,0,.295.295,0,0,0,.589,0,1.179,1.179,0,0,0-2.357,0v1.768A1.18,1.18,0,0,0,150.513,46.8Z" transform="translate(-145.209 -41.493)"/><path d="M42.96,45.629h1.473v.884a.295.295,0,1,0,.589,0V44.745a.295.295,0,1,0-.589,0v.3h-1l.966-1.931a.295.295,0,0,0-.527-.264L42.7,45.2a.294.294,0,0,0,.264.426Z" transform="translate(-41.487 -41.504)"/></g></g></g></svg>