<svg xmlns="http://www.w3.org/2000/svg" width="20.223" height="20.263" viewBox="0 0 20.223 20.263"><g transform="translate(0 20.263) rotate(-90)" opacity="0.52"><path d="M17.758,2.505A8.554,8.554,0,0,0,4.643,13.372L.462,17.53a1.578,1.578,0,0,0,2.23,2.232L6.87,15.606a8.554,8.554,0,0,0,10.888-13.1ZM1.854,18.922a.391.391,0,0,1-.667-.276.387.387,0,0,1,.113-.275l4.084-4.063q.135.149.279.292c.089.089.18.176.273.261Zm15.065-5.161a7.366,7.366,0,1,1,0-10.416A7.374,7.374,0,0,1,16.919,13.761Zm0,0"/><path d="M11.123,1.906a6.514,6.514,0,1,0,0,9.217A6.525,6.525,0,0,0,11.123,1.906Zm-.839,8.378a5.328,5.328,0,1,1,0-7.538A5.337,5.337,0,0,1,10.284,10.284Zm0,0" transform="translate(5.196 2.038)"/></g></svg>