<svg xmlns="http://www.w3.org/2000/svg" width="15.987" height="10.944" viewBox="0 0 15.987 10.944"><g transform="translate(-0.6 875.965)"><path d="M8.056-875.951A10.921,10.921,0,0,0,2.787-874.3a10.636,10.636,0,0,0-1.831,1.446.956.956,0,0,0-.321.463.667.667,0,0,0-.034.256.775.775,0,0,0,.088.4.9.9,0,0,0,1.22.39,1.366,1.366,0,0,0,.315-.254c.285-.268.428-.394.645-.568a9.141,9.141,0,0,1,4.563-1.932,6.87,6.87,0,0,1,1.163-.062,6.87,6.87,0,0,1,1.163.063,9.141,9.141,0,0,1,4.563,1.932c.218.174.36.3.645.568a1.04,1.04,0,0,0,.513.331,1,1,0,0,0,.448,0,.9.9,0,0,0,.575-.468.775.775,0,0,0,.088-.4.667.667,0,0,0-.034-.256.956.956,0,0,0-.321-.463A10.636,10.636,0,0,0,14.4-874.3,10.941,10.941,0,0,0,8.056-875.951Z"/><path d="M160.695-622.526a8.135,8.135,0,0,0-4.829,1.848,7.216,7.216,0,0,0-.584.53.862.862,0,0,0-.281.653.856.856,0,0,0,.263.633.879.879,0,0,0,.905.211.94.94,0,0,0,.405-.265,6.474,6.474,0,0,1,1.621-1.149,6.455,6.455,0,0,1,2.232-.644,8.684,8.684,0,0,1,1.275,0,6.455,6.455,0,0,1,2.232.644,6.474,6.474,0,0,1,1.621,1.149.94.94,0,0,0,.405.265.879.879,0,0,0,.905-.211.856.856,0,0,0,.263-.633.862.862,0,0,0-.281-.653,8.111,8.111,0,0,0-1.1-.923,8.165,8.165,0,0,0-3.605-1.393A9.276,9.276,0,0,0,160.695-622.526Z" transform="translate(-152.47 -250.263)"/><path d="M339.035-364a5,5,0,0,0-3.044,1.323c-.075.069-.165.159-.2.2a1.088,1.088,0,0,0-.18.354,1.145,1.145,0,0,0-.005.413.913.913,0,0,0,.683.676,1.073,1.073,0,0,0,.423-.013.958.958,0,0,0,.465-.289,3.228,3.228,0,0,1,1.863-.864,4.517,4.517,0,0,1,.713,0,3.28,3.28,0,0,1,1.09.324,3.235,3.235,0,0,1,.773.54.958.958,0,0,0,.465.289,1.073,1.073,0,0,0,.423.013.913.913,0,0,0,.683-.676,1.145,1.145,0,0,0-.005-.413,1.089,1.089,0,0,0-.18-.354,5.1,5.1,0,0,0-1.178-.909A5.078,5.078,0,0,0,339.035-364Z" transform="translate(-330.804 -505.546)"/><path d="M581.011-118.792a.8.8,0,0,0-.48.346.778.778,0,0,0-.074.59.769.769,0,0,0,.476.491.506.506,0,0,0,.228.033.664.664,0,0,0,.421-.12.749.749,0,0,0,.293-.849.749.749,0,0,0-.37-.425A.722.722,0,0,0,581.011-118.792Z" transform="translate(-572.58 -747.69)"/></g></svg>